#!OML:ASF H:\BabyWalks\Project 1\Capture day 1\Session 1\baby.ASF
:FULLY-SPECIFIED
:DEGREES
441
root -3.07975 15.7759 -0.84464 9.33852 87.067 -9.86849
lowerback 31.8353 0.760628 -1.73475
upperback 7.86661 1.21002 0.594766
thorax -8.52418 0.88373 1.17929
lowerneck -1.32116 1.49746 6.30597
upperneck -11.8896 1.62323 -7.83638
head -3.1785 0.961593 -3.46887
rclavicle -1.91827e-014 -2.23633e-014
rhumerus -39.7074 15.8305 -85.0843
rradius 41.7098
rwrist 3.20933
rhand -11.911 -18.0817
rfingers 7.12502
rthumb 14.1428 -47.5803
lclavicle -1.91827e-014 -2.23633e-014
lhumerus -38.6593 -9.50759 75.0922
lradius 47.6299
lwrist -9.59506
lhand 6.09887 4.82038
lfingers 7.12502
lthumb 31.4175 32.1414
rfemur -49.4411 4.61216 20.201
rtibia 74.3704
rfoot -33.5833 -0.314154
rtoes -22.1693
lfemur -58.6499 10.0324 -20.3329
ltibia 72.8599
lfoot -30.5479 -14.5692
ltoes 2.9242
442
root -2.97104 15.6927 -0.852519 7.69095 87.2051 -11.6582
lowerback 31.8379 0.723542 -1.71697
upperback 7.83899 1.16692 0.592657
thorax -8.55536 0.86307 1.18262
lowerneck -1.57735 1.48974 6.1968
upperneck -12.174 1.61333 -7.70317
head -3.22519 0.95986 -3.41186
rclavicle 1.56046e-014 2.24627e-014
rhumerus -39.3197 15.8319 -84.8317
rradius 41.6297
rwrist 3.16812
rhand -12.864 -18.416
rfingers 7.12502
rthumb 13.2243 -47.9765
lclavicle 1.56046e-014 2.24627e-014
lhumerus -37.6517 -9.85236 74.6719
lradius 48.5032
lwrist -9.65282
lhand 5.61817 4.52763
lfingers 7.12502
lthumb 30.9594 31.9368
rfemur -49.7424 4.5438 20.2436
rtibia 75.6904
rfoot -33.9432 -0.456381
rtoes -23.5381
lfemur -59.1732 9.96736 -20.2806
ltibia 74.3254
lfoot -31.0176 -14.5574
ltoes 2.575
443
root -2.85966 15.6176 -0.860619 6.00712 87.3446 -13.4709
lowerback 31.8353 0.700768 -1.7007
upperback 7.80469 1.14077 0.591458
thorax -8.59246 0.850143 1.18149
lowerneck -1.8778 1.46001 6.08679
upperneck -12.4367 1.57418 -7.56793
head -3.26031 0.943089 -3.35284
rclavicle -8.34896e-015 -1.71452e-014
rhumerus -38.9833 15.8975 -84.5971
rradius 41.605
rwrist 3.03469
rhand -13.8514 -18.7651
rfingers 7.12502
rthumb 12.2724 -48.385
lclavicle -8.34896e-015 -1.71452e-014
lhumerus -36.586 -10.1956 74.2253
lradius 49.4411
lwrist -9.70734
lhand 5.13635 4.24153
lfingers 7.12502
lthumb 30.5 31.7371
rfemur -49.9737 4.48123 20.2853
rtibia 76.9111
rfoot -34.2434 -0.589038
rtoes -24.6984
lfemur -59.5764 9.81557 -20.158
ltibia 75.6398
lfoot -31.4755 -14.5724
ltoes 2.03646
444
root -2.74515 15.5514 -0.868565 4.47458 87.4849 -15.1116
lowerback 31.8311 0.696008 -1.70893
upperback 7.76425 1.12961 0.595565
thorax -8.63676 0.844447 1.19489
lowerneck -2.21985 1.41386 5.97088
upperneck -12.6747 1.51309 -7.435
head -3.28275 0.915364 -3.29248
rclavicle 5.41688e-015 1.39149e-015
rhumerus -38.7028 16.0449 -84.3758
rradius 41.6352
rwrist 2.83977
rhand -14.8263 -19.112
rfingers 7.12502
rthumb 11.3323 -48.7858
lclavicle 5.41688e-015 1.39149e-015
lhumerus -35.4867 -10.5192 73.7626
lradius 50.4604
lwrist -9.73118
lhand 4.61092 3.97148
lfingers 7.12502
lthumb 29.9988 31.559
rfemur -50.1207 4.4279 20.3191
rtibia 78.0253
rfoot -34.4971 -0.732791
rtoes -25.6992
lfemur -59.8337 9.58187 -19.9777
ltibia 76.785
lfoot -31.9318 -14.6065
ltoes 1.38016
445
root -2.62792 15.4935 -0.876267 3.38189 87.6199 -16.3134
lowerback 31.809 0.709362 -1.74297
upperback 7.70486 1.13028 0.592346
thorax -8.69499 0.844004 1.21058
lowerneck -2.59253 1.3515 5.8621
upperneck -12.5921 1.47721 -7.06476
head -3.5854 0.866913 -3.48023
rclavicle 1.2424e-014 8.74653e-015
rhumerus -38.4843 16.2694 -84.1766
rradius 41.7207
rwrist 2.59653
rhand -15.7429 -19.4511
rfingers 7.12502
rthumb 10.4482 -49.1714
lclavicle 1.2424e-014 8.74653e-015
lhumerus -34.3891 -10.8366 73.2788
lradius 51.5814
lwrist -9.68397
lhand 3.98345 3.71914
lfingers 7.12502
lthumb 29.3999 31.4134
rfemur -50.2126 4.38921 20.3323
rtibia 79.0327
rfoot -34.7011 -0.885979
rtoes -26.5408
lfemur -59.9679 9.27952 -19.768
ltibia 77.7544
lfoot -32.3976 -14.6326
ltoes 0.680878
